<svg width="343" height="343" viewBox="0 0 343 343" fill="none" xmlns="http://www.w3.org/2000/svg">
<g clip-path="url(#clip0_29369_126861)">
<path d="M281.849 94.8229C281.849 94.8229 281.926 95.0151 282.05 94.9991C282.173 94.9991 282.188 94.8549 282.158 94.7268C282.204 94.2784 282.343 93.8781 282.605 93.5258C282.851 93.1734 283.175 92.8692 283.56 92.709L291.777 87.9048C292.548 87.4884 293.226 86.9119 293.75 86.1913C294.274 85.4706 294.644 84.6539 294.844 83.7571C295.168 82.3639 294.983 80.8585 294.32 79.5934C293.997 78.9208 293.627 78.2643 293.257 77.6077L291.561 74.4209L289.218 70.1771C289.218 70.1771 289.11 69.9849 288.987 70.0009C288.848 70.017 288.925 70.1771 288.879 70.2572C288.832 70.6735 288.694 71.1059 288.447 71.4582C288.231 71.8105 287.892 72.1148 287.507 72.323C287.198 72.5152 286.89 72.6753 286.597 72.8515L280.154 76.5668C279.46 76.9031 278.812 77.3354 278.18 77.7998C277.487 78.3924 276.947 79.129 276.593 79.9778C276.392 80.3621 276.223 80.7625 276.145 81.1628C275.837 82.6041 276.022 84.1254 276.67 85.4066C277.302 86.6397 277.949 87.8407 278.627 89.0258L280.046 91.588L281.834 94.8229H281.818H281.849Z" fill="url(#paint0_linear_29369_126861)"/>
<path d="M114.855 77.8402C114.855 77.8402 115.094 77.9845 115.213 77.8883C115.333 77.7681 115.261 77.6237 115.166 77.5034C114.903 76.9742 114.783 76.3969 114.783 75.8196C114.783 75.2423 114.95 74.665 115.261 74.1839L121.166 62.6616C121.74 61.6032 122.122 60.4726 122.194 59.2939C122.289 58.0912 122.122 56.9366 121.668 55.806C121.022 54.0019 119.732 52.5105 118.034 51.5964C117.15 51.0912 116.265 50.6342 115.381 50.2012L111.126 47.9641L105.364 45.0535C105.364 45.0535 105.125 44.9332 104.982 45.0535C104.838 45.1737 105.006 45.2699 105.03 45.3902C105.293 45.8954 105.412 46.4967 105.436 47.0741C105.436 47.6514 105.293 48.2287 105.006 48.7338C104.791 49.1909 104.552 49.5998 104.336 50.0328L99.6988 59.0293C99.1729 59.9194 98.6948 60.8815 98.3362 61.8678C97.9776 63.0465 97.9059 64.2733 98.121 65.476C98.1688 66.0533 98.2884 66.6066 98.4557 67.1358C99.149 68.964 100.464 70.5035 102.161 71.4176C103.763 72.2595 105.388 73.1014 107.014 73.9193L110.504 75.6753L114.879 77.8643H114.855V77.8402Z" fill="url(#paint1_linear_29369_126861)"/>
<path d="M47.8007 142.143C47.8007 142.143 48.0636 142.263 48.1832 142.143C48.3027 142.046 48.2071 141.854 48.0876 141.782C47.7768 141.277 47.6094 140.723 47.5855 140.122C47.5855 139.545 47.6812 138.967 47.9441 138.438L52.9882 126.531C53.4902 125.449 53.7771 124.27 53.7531 123.067C53.7531 121.864 53.4902 120.686 52.9882 119.603C52.1993 117.847 50.8128 116.452 49.0677 115.706C48.1593 115.273 47.227 114.888 46.3186 114.504L41.896 112.555L35.9675 110.053C35.9675 110.053 35.7045 109.933 35.585 110.053C35.4655 110.174 35.6567 110.27 35.6806 110.414C35.9914 110.895 36.1587 111.473 36.1826 112.026C36.2065 112.603 36.1109 113.181 35.8719 113.71C35.7045 114.143 35.4894 114.6 35.2981 115.033L31.3298 124.342C30.8517 125.256 30.4692 126.242 30.2063 127.253C29.9194 128.431 29.9433 129.658 30.2063 130.885C30.3019 131.414 30.4692 131.991 30.6844 132.497C31.4972 134.277 32.9315 135.696 34.7005 136.49C36.3739 137.211 38.0234 137.957 39.7206 138.655L43.3065 140.146L47.8246 142.022V142.119H47.8007V142.143Z" fill="url(#paint2_linear_29369_126861)"/>
<path d="M289.099 268.264C289.099 268.264 289.099 268.457 289.243 268.481C289.362 268.481 289.434 268.385 289.41 268.264C289.53 267.88 289.769 267.543 290.08 267.254C290.39 266.966 290.749 266.773 291.155 266.677L299.952 264.079C300.765 263.862 301.53 263.502 302.2 262.924C302.869 262.395 303.371 261.722 303.753 260.928C304.351 259.725 304.518 258.282 304.136 256.983C303.969 256.285 303.753 255.588 303.538 254.914L302.582 251.619L301.267 247.192C301.267 247.192 301.196 247 301.076 247C300.957 247 300.98 247.12 300.957 247.217C300.837 247.601 300.598 247.938 300.287 248.227C300 248.515 299.618 248.708 299.211 248.828C298.901 248.924 298.542 249.021 298.231 249.117L291.323 251.113C290.605 251.282 289.864 251.498 289.219 251.811C288.43 252.196 287.761 252.773 287.259 253.471C287.02 253.759 286.757 254.096 286.589 254.457C285.992 255.684 285.824 257.151 286.207 258.498C286.565 259.773 286.9 261 287.283 262.251L288.095 264.921L289.099 268.289V268.264Z" fill="url(#paint3_linear_29369_126861)"/>
<path d="M282.352 210.895L272.344 211.363C272.271 209.848 271.837 196.238 279.918 189.991C282.723 187.831 287.626 185.702 295.13 187.956C298.382 188.944 300.903 188.751 302.861 187.482C306.732 184.941 308.192 178.346 308.445 176.243L318.398 177.232C318.263 178.593 316.841 190.202 308.427 195.75C305.317 197.836 299.985 199.789 292.259 197.513C288.14 196.262 286.593 197.438 286.107 197.833C282.917 200.265 282.224 207.689 282.348 210.938L282.352 210.895Z" fill="#30A474"/>
<path d="M290.591 154.506C290.591 154.506 290.682 154.799 290.865 154.786C291.045 154.803 291.096 154.588 291.055 154.395C291.18 153.746 291.449 153.174 291.891 152.682C292.303 152.188 292.825 151.799 293.419 151.606L306.219 145.727C307.419 145.216 308.491 144.472 309.375 143.489C310.259 142.506 310.919 141.343 311.348 140.062C312.032 138.051 311.983 135.81 311.18 133.84C310.801 132.794 310.358 131.773 309.915 130.753L307.898 125.796L305.077 119.183C305.077 119.183 304.956 118.888 304.773 118.901C304.56 118.911 304.658 119.142 304.586 119.261C304.464 119.878 304.193 120.482 303.78 120.976C303.398 121.474 302.876 121.863 302.276 122.118C301.799 122.354 301.325 122.559 300.851 122.764L290.814 127.311C289.746 127.709 288.726 128.237 287.73 128.831C286.625 129.604 285.708 130.615 285.075 131.812C284.719 132.344 284.421 132.913 284.242 133.494C283.582 135.57 283.629 137.843 284.398 139.841C285.146 141.743 285.928 143.616 286.742 145.461L288.463 149.444L290.624 154.478L290.591 154.506Z" fill="url(#paint4_linear_29369_126861)"/>
<path d="M39.6565 70.7486L35.8066 61.4031C37.1732 60.7655 49.5278 55.3508 58.0278 60.7452C60.9728 62.5848 64.5813 66.4922 65.0927 74.4594C65.3162 77.8938 66.3443 80.2254 68.2023 81.6384C71.8841 84.3701 78.4164 83.336 80.4238 82.8075L82.8775 92.6511C81.6238 93.027 70.4753 95.9228 62.4637 89.9854C59.5114 87.7812 55.8572 83.4598 55.3251 75.263C55.0667 70.8697 53.4265 69.8877 52.8986 69.5168C49.5458 67.4092 42.4803 69.4368 39.6135 70.7443L39.6565 70.7486Z" fill="#30A474"/>
<path d="M22.6584 186.79L18.8085 177.444C20.1752 176.807 32.5297 171.392 41.0297 176.786C43.9748 178.626 47.5832 182.533 48.0947 190.5C48.3181 193.935 49.3463 196.266 51.2042 197.679C54.886 200.411 61.4183 199.377 63.4258 198.849L65.8795 208.692C64.6257 209.068 53.4772 211.964 45.4656 206.026C42.5134 203.822 38.8592 199.501 38.3271 191.304C38.0686 186.911 36.4285 185.929 35.9006 185.558C32.5477 183.45 25.4823 185.478 22.6154 186.785L22.6584 186.79Z" fill="#30A474"/>
<path d="M81.0656 148.949L108.664 172.184L102.861 202.684C88.3307 188.153 57.8538 163.479 65.0961 150.411C69.1627 143.078 77.6843 146.55 81.0656 148.949Z" fill="url(#paint5_linear_29369_126861)"/>
<path d="M89.975 287.831L115.905 112.669C117.482 102.046 127.054 94.4608 137.769 95.3975L230.936 103.439C242.588 104.445 250.995 115.068 249.305 126.628L223.42 303.801C221.843 314.607 211.997 322.238 201.122 321.073L107.909 311.02C96.4404 309.787 88.2843 299.254 89.975 287.831Z" fill="url(#paint6_linear_29369_126861)"/>
<path d="M91.8264 280.43L115.815 107.484C116.889 99.8073 123.811 94.3013 131.533 95.0096L219.902 103.166C228.127 103.92 234.067 111.39 232.948 119.592L209.005 294.571C207.931 302.408 200.803 307.936 192.967 307.023L104.575 296.833C96.487 295.897 90.7297 288.494 91.8492 280.407L91.8264 280.43Z" fill="url(#paint7_linear_29369_126861)"/>
<path d="M102.518 273.575L123.217 113.742C123.811 109.082 128.037 105.723 132.721 106.18L211.563 113.971C216.452 114.451 219.97 118.883 219.354 123.749L198.701 285.523C198.084 290.275 193.743 293.656 188.991 293.062L110.126 283.33C105.328 282.736 101.924 278.349 102.564 273.575H102.518Z" fill="#E9F9FF"/>
<path d="M246.611 91.2613C250.106 68.0267 238.866 59.8934 233.543 58.911C209.143 55.4155 201.604 76.2513 200.142 86.8977L246.611 91.2613Z" fill="url(#paint8_linear_29369_126861)"/>
<path d="M117.591 177.911L116.916 183.698C116.36 188.473 119.779 192.795 124.554 193.352L195.468 201.62C200.243 202.176 204.565 198.757 205.122 193.982L205.797 188.195C206.353 183.42 202.934 179.098 198.159 178.541L127.245 170.273C122.47 169.717 118.148 173.136 117.591 177.911Z" fill="#FDB555"/>
<path d="M136.237 73.4423L122.484 179.38C122.073 182.602 124.38 185.549 127.602 185.891L194.404 193.316C197.58 193.659 200.435 191.42 200.801 188.245C205.256 151.188 212.43 91.7193 214.646 80.6845C218.712 60.3514 225.292 58.4095 233.517 58.9121L165.275 53.1091C140.578 51.647 137.197 65.2176 136.237 73.4423Z" fill="url(#paint9_linear_29369_126861)"/>
<path d="M118.831 208.485L197.239 217.19" stroke="white" stroke-width="5" stroke-linecap="round"/>
<path d="M118.831 208.485L160.937 212.849" stroke="#30A474" stroke-width="2.29" stroke-linecap="round"/>
<path d="M203.042 169.258C178.642 165.763 172.542 180.864 172.542 191.031L191.116 193.955C196.028 194.732 200.574 191.259 201.145 186.302L203.042 169.236V169.258Z" fill="#B0DCCA"/>
<path d="M124.886 160.509C149.377 163.205 151.524 179.334 149.011 189.181L130.277 187.399C125.32 186.919 121.778 182.418 122.487 177.506L124.886 160.509Z" fill="#B0DCCA"/>
<path d="M194.876 100.545C195.703 89.8517 186.256 80.4012 173.777 79.4366C161.297 78.472 150.511 86.3585 149.684 97.0516C148.858 107.745 158.304 117.195 170.784 118.16C183.263 119.124 194.05 111.238 194.876 100.545Z" fill="white"/>
<path d="M243.708 141.683C225.111 140.518 223.375 193.475 226.276 212.826C210.306 246.227 221.433 278.166 224.814 291.234L224.06 299.619C222.895 312.55 211.312 322.031 198.404 320.615L141.996 314.675L137.701 373.984C165.299 382.688 200.14 379.786 229.177 350.749C229.177 350.749 237.882 355.113 253.874 355.113C258.238 317.371 268.404 256.371 265.48 250.568C258.215 236.038 245.147 209.902 248.048 180.864C250.379 157.63 252.412 142.208 243.685 141.66L243.708 141.683Z" fill="url(#paint10_linear_29369_126861)"/>
<path d="M88.6039 275.014C77.0665 256.989 89.8833 240.357 96.3031 238.963L95.0237 251.437L97.5824 259.753C101.421 273.621 91.848 280.04 88.6039 274.991V275.014Z" fill="url(#paint11_linear_29369_126861)"/>
<path d="M92.1213 250.591C79.0532 231.72 93.5834 214.288 100.826 212.826L99.3635 225.894L102.265 234.599C106.629 249.129 95.7538 255.868 92.0984 250.568L92.1213 250.591Z" fill="url(#paint12_linear_29369_126861)"/>
<path d="M95.5955 228.797C82.5275 209.926 96.715 193.203 103.98 191.764L102.427 203.598L105.762 212.828C110.126 227.358 99.2509 234.098 95.5955 228.797Z" fill="url(#paint13_linear_29369_126861)"/>
<path d="M230.115 306.611C229.384 325.687 209.987 329.137 200.369 328.475L141.312 324.202L141.746 314.653L196.988 318.902C210.901 320.296 223.238 310.015 224.38 296.102L224.792 291.121L230.092 306.611H230.115Z" fill="url(#paint14_linear_29369_126861)"/>
</g>
<defs>
<linearGradient id="paint0_linear_29369_126861" x1="276.485" y1="79.9939" x2="294.625" y2="84.6765" gradientUnits="userSpaceOnUse">
<stop stop-color="#FED49D"/>
<stop offset="1" stop-color="#FDB555"/>
</linearGradient>
<linearGradient id="paint1_linear_29369_126861" x1="97.9298" y1="65.5244" x2="122.152" y2="57.5084" gradientUnits="userSpaceOnUse">
<stop stop-color="#FED49D"/>
<stop offset="1" stop-color="#FDB555"/>
</linearGradient>
<linearGradient id="paint2_linear_29369_126861" x1="29.9675" y1="131.053" x2="53.5812" y2="121.319" gradientUnits="userSpaceOnUse">
<stop stop-color="#FED49D"/>
<stop offset="1" stop-color="#FDB555"/>
</linearGradient>
<linearGradient id="paint3_linear_29369_126861" x1="286.996" y1="253.399" x2="303.128" y2="261.903" gradientUnits="userSpaceOnUse">
<stop stop-color="#FED49D"/>
<stop offset="1" stop-color="#FDB555"/>
</linearGradient>
<linearGradient id="paint4_linear_29369_126861" x1="284.875" y1="131.798" x2="310.91" y2="141.331" gradientUnits="userSpaceOnUse">
<stop stop-color="#FED49D"/>
<stop offset="1" stop-color="#FDB555"/>
</linearGradient>
<linearGradient id="paint5_linear_29369_126861" x1="63.9994" y1="174.331" x2="108.664" y2="174.331" gradientUnits="userSpaceOnUse">
<stop offset="0.02" stop-color="#EA8D8D"/>
<stop offset="0.59" stop-color="#FFA8A8"/>
<stop offset="1" stop-color="#FFE3E3"/>
</linearGradient>
<linearGradient id="paint6_linear_29369_126861" x1="86.8679" y1="210.588" x2="252.389" y2="205.928" gradientUnits="userSpaceOnUse">
<stop stop-color="#FA7C55"/>
<stop offset="0.58" stop-color="#F0304D"/>
<stop offset="1" stop-color="#99011E"/>
</linearGradient>
<linearGradient id="paint7_linear_29369_126861" x1="225.317" y1="259.731" x2="122.737" y2="162.429" gradientUnits="userSpaceOnUse">
<stop stop-color="#0B1C3F"/>
<stop offset="0.48" stop-color="#07245C"/>
<stop offset="1" stop-color="#375A91"/>
</linearGradient>
<linearGradient id="paint8_linear_29369_126861" x1="200.142" y1="74.8805" x2="247.273" y2="74.8805" gradientUnits="userSpaceOnUse">
<stop stop-color="#0B1C3F"/>
<stop offset="0.48" stop-color="#07245C"/>
<stop offset="1" stop-color="#375A91"/>
</linearGradient>
<linearGradient id="paint9_linear_29369_126861" x1="177.977" y1="52.9949" x2="177.977" y2="193.956" gradientUnits="userSpaceOnUse">
<stop stop-color="#B0DCCA"/>
<stop offset="1" stop-color="#30A474"/>
</linearGradient>
<linearGradient id="paint10_linear_29369_126861" x1="267.285" y1="169.007" x2="177.431" y2="383.922" gradientUnits="userSpaceOnUse">
<stop offset="0.02" stop-color="#EA8D8D"/>
<stop offset="0.59" stop-color="#FFA8A8"/>
<stop offset="1" stop-color="#FFE3E3"/>
</linearGradient>
<linearGradient id="paint11_linear_29369_126861" x1="83.9661" y1="257.857" x2="98.4963" y2="257.857" gradientUnits="userSpaceOnUse">
<stop offset="0.02" stop-color="#EA8D8D"/>
<stop offset="0.59" stop-color="#FFA8A8"/>
<stop offset="1" stop-color="#FFE3E3"/>
</linearGradient>
<linearGradient id="paint12_linear_29369_126861" x1="86.8666" y1="232.611" x2="103.316" y2="232.611" gradientUnits="userSpaceOnUse">
<stop offset="0.02" stop-color="#EA8D8D"/>
<stop offset="0.59" stop-color="#FFA8A8"/>
<stop offset="1" stop-color="#FFE3E3"/>
</linearGradient>
<linearGradient id="paint13_linear_29369_126861" x1="90.2495" y1="211.183" x2="106.767" y2="211.183" gradientUnits="userSpaceOnUse">
<stop offset="0.02" stop-color="#EA8D8D"/>
<stop offset="0.59" stop-color="#FFA8A8"/>
<stop offset="1" stop-color="#FFE3E3"/>
</linearGradient>
<linearGradient id="paint14_linear_29369_126861" x1="185.957" y1="311.618" x2="181.003" y2="331.946" gradientUnits="userSpaceOnUse">
<stop stop-color="#EA8D8D"/>
<stop offset="0.64" stop-color="#F7BBBB"/>
<stop offset="1" stop-color="#FFD8D8"/>
</linearGradient>
<clipPath id="clip0_29369_126861">
<rect width="343" height="343" fill="white"/>
</clipPath>
</defs>
</svg>
